# xmcd
#
# Track frame offsets: 
#        182
#        10987
#        26592
#        41572
#        56210
#        69242
#        85792
#        99487
#        109215
#        123060
#
# Disc length: 1835 seconds
#
# Revision: 4
# Processed by: cddbd v1.5.2PL0 Copyright (c) Steve Scherf et al.
# Submitted via: ExactAudioCopyFreeDBPlugin 1.0
#
DISCID=7907290a
DTITLE=Daryle Singletary - All Because Of You
DYEAR=1996
DGENRE=Country
TTITLE0=Used To Be's, The
TTITLE1=Amen Kind Of Love
TTITLE2=My Heart Population You
TTITLE3=Hurts Don't It
TTITLE4=Liar Liar My Heart's On Fire
TTITLE5=Even The Wind
TTITLE6=All Because Of You
TTITLE7=Redneckin'
TTITLE8=He'll Heal My Broken Heart
TTITLE9=That's What I Get For Thinkin'
EXTD=
EXTT0=
EXTT1=
EXTT2=
EXTT3=
EXTT4=
EXTT5=
EXTT6=
EXTT7=
EXTT8=
EXTT9=
PLAYORDER=
